<svg width="156" height="156" viewBox="0 0 156 156" fill="none" xmlns="http://www.w3.org/2000/svg">
<path d="M153.4 46.8H119.6V2.6C119.6 1.1622 118.435 0 117 0H39C37.5648 0 36.4 1.1622 36.4 2.6V46.8H2.6C1.1648 46.8 0 47.9622 0 49.4V153.4C0 154.838 1.1648 156 2.6 156H153.4C154.835 156 156 154.838 156 153.4V49.4C156 47.9622 154.835 46.8 153.4 46.8ZM5.2 52H36.4V150.8H5.2V52ZM85.8 124.8V150.8H70.2V124.8H85.8ZM114.4 150.8H91V124.8H96.2V119.6H59.8V124.8H65V150.8H41.6V5.2H114.4V150.8ZM150.8 150.8H119.6V52H150.8V150.8Z" fill="#E7E7E7"/>
<path d="M127.401 78H143.001C144.436 78 145.601 76.8378 145.601 75.4V59.8C145.601 58.3622 144.436 57.2 143.001 57.2H127.401C125.966 57.2 124.801 58.3622 124.801 59.8V75.4C124.801 76.8378 125.966 78 127.401 78ZM130.001 62.4H140.401V72.8H130.001V62.4Z" fill="#E7E7E7"/>
<path d="M127.401 104H143.001C144.436 104 145.601 102.838 145.601 101.4V85.8C145.601 84.3622 144.436 83.2 143.001 83.2H127.401C125.966 83.2 124.801 84.3622 124.801 85.8V101.4C124.801 102.838 125.966 104 127.401 104ZM130.001 88.4H140.401V98.7999H130.001V88.4Z" fill="#E7E7E7"/>
<path d="M127.401 130H143.001C144.436 130 145.601 128.838 145.601 127.4V111.8C145.601 110.362 144.436 109.2 143.001 109.2H127.401C125.966 109.2 124.801 110.362 124.801 111.8V127.4C124.801 128.838 125.966 130 127.401 130ZM130.001 114.4H140.401V124.8H130.001V114.4Z" fill="#E7E7E7"/>
<path d="M28.6004 57.2H13.0004C11.5652 57.2 10.4004 58.3622 10.4004 59.8V75.4C10.4004 76.8378 11.5652 78 13.0004 78H28.6004C30.0356 78 31.2004 76.8378 31.2004 75.4V59.8C31.2004 58.3622 30.0356 57.2 28.6004 57.2ZM26.0004 72.8H15.6004V62.4H26.0004V72.8Z" fill="#E7E7E7"/>
<path d="M49.4008 67.6H59.8008C61.236 67.6 62.4008 66.4378 62.4008 65V54.6C62.4008 53.1622 61.236 52 59.8008 52H49.4008C47.9656 52 46.8008 53.1622 46.8008 54.6V65C46.8008 66.4378 47.9656 67.6 49.4008 67.6ZM52.0008 57.2H57.2008V62.4H52.0008V57.2Z" fill="#E7E7E7"/>
<path d="M83.1992 52H72.7992C71.364 52 70.1992 53.1622 70.1992 54.6V65C70.1992 66.4378 71.364 67.6 72.7992 67.6H83.1992C84.6344 67.6 85.7992 66.4378 85.7992 65V54.6C85.7992 53.1622 84.6344 52 83.1992 52ZM80.5992 62.4H75.3992V57.2H80.5992V62.4Z" fill="#E7E7E7"/>
<path d="M93.5996 54.6V65C93.5996 66.4378 94.7644 67.6 96.1996 67.6H106.6C108.035 67.6 109.2 66.4378 109.2 65V54.6C109.2 53.1622 108.035 52 106.6 52H96.1996C94.7644 52 93.5996 53.1622 93.5996 54.6ZM98.7996 57.2H104V62.4H98.7996V57.2Z" fill="#E7E7E7"/>
<path d="M49.4008 88.4H59.8008C61.236 88.4 62.4008 87.2378 62.4008 85.8V75.4C62.4008 73.9622 61.236 72.8 59.8008 72.8H49.4008C47.9656 72.8 46.8008 73.9622 46.8008 75.4V85.8C46.8008 87.2378 47.9656 88.4 49.4008 88.4ZM52.0008 78H57.2008V83.2H52.0008V78Z" fill="#E7E7E7"/>
<path d="M83.1992 72.8H72.7992C71.364 72.8 70.1992 73.9622 70.1992 75.4V85.8C70.1992 87.2378 71.364 88.4 72.7992 88.4H83.1992C84.6344 88.4 85.7992 87.2378 85.7992 85.8V75.4C85.7992 73.9622 84.6344 72.8 83.1992 72.8ZM80.5992 83.2H75.3992V78H80.5992V83.2Z" fill="#E7E7E7"/>
<path d="M106.6 72.8H96.1996C94.7644 72.8 93.5996 73.9622 93.5996 75.4V85.8C93.5996 87.2378 94.7644 88.4 96.1996 88.4H106.6C108.035 88.4 109.2 87.2378 109.2 85.8V75.4C109.2 73.9622 108.035 72.8 106.6 72.8ZM104 83.2H98.7996V78H104V83.2Z" fill="#E7E7E7"/>
<path d="M49.4008 109.2H59.8008C61.236 109.2 62.4008 108.038 62.4008 106.6V96.2001C62.4008 94.7623 61.236 93.6001 59.8008 93.6001H49.4008C47.9656 93.6001 46.8008 94.7623 46.8008 96.2001V106.6C46.8008 108.038 47.9656 109.2 49.4008 109.2ZM52.0008 98.8001H57.2008V104H52.0008V98.8001Z" fill="#E7E7E7"/>
<path d="M83.1992 93.6001H72.7992C71.364 93.6001 70.1992 94.7623 70.1992 96.2001V106.6C70.1992 108.038 71.364 109.2 72.7992 109.2H83.1992C84.6344 109.2 85.7992 108.038 85.7992 106.6V96.2001C85.7992 94.7623 84.6344 93.6001 83.1992 93.6001ZM80.5992 104H75.3992V98.8001H80.5992V104Z" fill="#E7E7E7"/>
<path d="M106.6 93.6001H96.1996C94.7644 93.6001 93.5996 94.7623 93.5996 96.2001V106.6C93.5996 108.038 94.7644 109.2 96.1996 109.2H106.6C108.035 109.2 109.2 108.038 109.2 106.6V96.2001C109.2 94.7623 108.035 93.6001 106.6 93.6001ZM104 104H98.7996V98.8001H104V104Z" fill="#E7E7E7"/>
<path d="M28.6004 83.2H13.0004C11.5652 83.2 10.4004 84.3622 10.4004 85.8V101.4C10.4004 102.838 11.5652 104 13.0004 104H28.6004C30.0356 104 31.2004 102.838 31.2004 101.4V85.8C31.2004 84.3622 30.0356 83.2 28.6004 83.2ZM26.0004 98.7999H15.6004V88.4H26.0004V98.7999Z" fill="#E7E7E7"/>
<path d="M28.6004 109.2H13.0004C11.5652 109.2 10.4004 110.362 10.4004 111.8V127.4C10.4004 128.838 11.5652 130 13.0004 130H28.6004C30.0356 130 31.2004 128.838 31.2004 127.4V111.8C31.2004 110.362 30.0356 109.2 28.6004 109.2ZM26.0004 124.8H15.6004V114.4H26.0004V124.8Z" fill="#E7E7E7"/>
<path d="M62.3998 36.3999H70.1998V44.1999C70.1998 45.6377 71.3646 46.7999 72.7998 46.7999H83.1998C84.635 46.7999 85.7998 45.6377 85.7998 44.1999V36.3999H93.5998C95.035 36.3999 96.1998 35.2377 96.1998 33.7999V23.3999C96.1998 21.9621 95.035 20.7999 93.5998 20.7999H85.7998V12.9999C85.7998 11.5621 84.635 10.3999 83.1998 10.3999H72.7998C71.3646 10.3999 70.1998 11.5621 70.1998 12.9999V20.7999H62.3998C60.9646 20.7999 59.7998 21.9621 59.7998 23.3999V33.7999C59.7998 35.2377 60.9646 36.3999 62.3998 36.3999ZM64.9998 25.9999H72.7998C74.235 25.9999 75.3998 24.8377 75.3998 23.3999V15.5999H80.5998V23.3999C80.5998 24.8377 81.7646 25.9999 83.1998 25.9999H90.9998V31.1999H83.1998C81.7646 31.1999 80.5998 32.3621 80.5998 33.7999V41.5999H75.3998V33.7999C75.3998 32.3621 74.235 31.1999 72.7998 31.1999H64.9998V25.9999Z" fill="#E7E7E7"/>
<path d="M104 140.4H109.2V145.6H104V140.4Z" fill="#E7E7E7"/>
<path d="M104 130H109.2V135.2H104V130Z" fill="#E7E7E7"/>
<path d="M104 119.6H109.2V124.8H104V119.6Z" fill="#E7E7E7"/>
</svg>
